<svg width="18" height="18" viewBox="0 0 18 18" fill="none" xmlns="http://www.w3.org/2000/svg">
<path d="M15.2222 7.34689L9.59717 12.9719C9.51878 13.0506 9.42564 13.113 9.32308 13.1556C9.22052 13.1981 9.11056 13.2201 8.99951 13.2201C8.88846 13.2201 8.7785 13.1981 8.67594 13.1556C8.57339 13.113 8.48024 13.0506 8.40185 12.9719L2.77685 7.34689C2.61835 7.18839 2.5293 6.9734 2.5293 6.74924C2.5293 6.52507 2.61835 6.31009 2.77685 6.15158C2.93536 5.99307 3.15035 5.90402 3.37451 5.90402C3.59868 5.90402 3.81366 5.99307 3.97217 6.15158L9.00021 11.1796L14.0283 6.15088C14.1868 5.99237 14.4018 5.90332 14.6259 5.90332C14.8501 5.90332 15.0651 5.99237 15.2236 6.15088C15.3821 6.30939 15.4711 6.52437 15.4711 6.74853C15.4711 6.9727 15.3821 7.18768 15.2236 7.34619L15.2222 7.34689Z" fill="#A39FB2"/>
</svg>
