<svg width="20" height="20" viewBox="0 0 20 20" fill="none" xmlns="http://www.w3.org/2000/svg">
<path d="M18.7308 7.0944C18.7308 7.10299 18.7308 7.11081 18.7253 7.1194L16.9535 15.2342C16.8989 15.52 16.7464 15.7778 16.5223 15.9632C16.2981 16.1485 16.0163 16.2499 15.7253 16.2499H4.27457C3.9838 16.2498 3.70216 16.1483 3.47814 15.9629C3.25413 15.7775 3.10174 15.5199 3.04722 15.2342L1.27535 7.1194C1.27535 7.11081 1.27144 7.10299 1.26988 7.0944C1.22138 6.82573 1.26218 6.54857 1.38604 6.30527C1.5099 6.06197 1.71001 5.86591 1.95579 5.74705C2.20157 5.62819 2.47951 5.59306 2.74714 5.64704C3.01476 5.70102 3.25735 5.84113 3.43785 6.04596L6.06832 8.88112L8.86519 2.60846C8.86532 2.60586 8.86532 2.60325 8.86519 2.60065C8.9652 2.38373 9.12527 2.20001 9.32645 2.07124C9.52762 1.94246 9.76148 1.87402 10.0003 1.87402C10.2392 1.87402 10.4731 1.94246 10.6742 2.07124C10.8754 2.20001 11.0355 2.38373 11.1355 2.60065C11.1354 2.60325 11.1354 2.60586 11.1355 2.60846L13.9324 8.88112L16.5628 6.04596C16.7437 5.84265 16.986 5.70391 17.2529 5.65081C17.5198 5.59772 17.7967 5.63317 18.0416 5.75178C18.2865 5.87039 18.4861 6.06568 18.6099 6.308C18.7337 6.55032 18.7751 6.82643 18.7277 7.0944H18.7308Z" fill="#0B8A0B"/>
</svg>
