<svg width="20" height="20" viewBox="0 0 20 20" fill="none" xmlns="http://www.w3.org/2000/svg">
<path d="M17.5 9.99952V16.2495C17.5 16.581 17.3683 16.899 17.1339 17.1334C16.8995 17.3678 16.5815 17.4995 16.25 17.4995H3.75C3.41848 17.4995 3.10054 17.3678 2.86612 17.1334C2.6317 16.899 2.5 16.581 2.5 16.2495V3.74952C2.5 3.41799 2.6317 3.10005 2.86612 2.86563C3.10054 2.63121 3.41848 2.49952 3.75 2.49952H10C10.1658 2.49952 10.3247 2.56536 10.4419 2.68257C10.5592 2.79978 10.625 2.95875 10.625 3.12452C10.625 3.29028 10.5592 3.44925 10.4419 3.56646C10.3247 3.68367 10.1658 3.74952 10 3.74952H3.75V16.2495H16.25V9.99952C16.25 9.83375 16.3158 9.67478 16.4331 9.55757C16.5503 9.44036 16.7092 9.37452 16.875 9.37452C17.0408 9.37452 17.1997 9.44036 17.3169 9.55757C17.4342 9.67478 17.5 9.83375 17.5 9.99952ZM17.9422 5.4417L10.4422 12.9417C10.3841 12.9997 10.3152 13.0457 10.2393 13.0771C10.1634 13.1085 10.0821 13.1246 10 13.1245H7.5C7.33424 13.1245 7.17527 13.0587 7.05806 12.9415C6.94085 12.8242 6.875 12.6653 6.875 12.4995V9.99952C6.87494 9.91741 6.89105 9.83611 6.92241 9.76023C6.95378 9.68436 6.99979 9.61541 7.05781 9.55733L14.5578 2.05733C14.6159 1.99922 14.6848 1.95312 14.7607 1.92167C14.8365 1.89021 14.9179 1.87402 15 1.87402C15.0821 1.87402 15.1635 1.89021 15.2393 1.92167C15.3152 1.95312 15.3841 1.99922 15.4422 2.05733L17.9422 4.55733C18.0003 4.61537 18.0464 4.6843 18.0779 4.76018C18.1093 4.83605 18.1255 4.91738 18.1255 4.99952C18.1255 5.08165 18.1093 5.16298 18.0779 5.23885C18.0464 5.31473 18.0003 5.38366 17.9422 5.4417ZM16.6141 4.99952L15 3.38311L14.0086 4.37452L15.625 5.99092L16.6141 4.99952Z" fill="#F8F8FA"/>
</svg>
