<svg width="20" height="20" viewBox="0 0 20 20" fill="none" xmlns="http://www.w3.org/2000/svg">
  <path d="M18.589 8.37568C18.5716 8.28767 18.5354 8.20444 18.483 8.13164C18.4305 8.05885 18.363 7.9982 18.2851 7.95381L15.9546 6.62568L15.9452 3.99912C15.9449 3.90866 15.925 3.81935 15.8868 3.73734C15.8487 3.65533 15.7932 3.58258 15.7241 3.52412C14.8788 2.80904 13.9053 2.26105 12.8554 1.90928C12.7727 1.88129 12.6851 1.87094 12.5981 1.87888C12.5112 1.88682 12.4269 1.91287 12.3507 1.95537L9.9999 3.26943L7.64678 1.95303C7.57049 1.91029 7.48609 1.88404 7.39902 1.87596C7.31195 1.86789 7.22416 1.87817 7.14131 1.90615C6.09207 2.26018 5.11962 2.8103 4.27569 3.52725C4.20675 3.58562 4.15129 3.65824 4.11313 3.74011C4.07496 3.82197 4.05499 3.91114 4.05459 4.00147L4.04287 6.63037L1.7124 7.9585C1.63444 8.00288 1.56694 8.06354 1.5145 8.13633C1.46206 8.20913 1.42591 8.29236 1.4085 8.38037C1.19521 9.45216 1.19521 10.5555 1.4085 11.6272C1.42591 11.7153 1.46206 11.7985 1.5145 11.8713C1.56694 11.9441 1.63444 12.0047 1.7124 12.0491L4.04287 13.3772L4.05225 16.0046C4.05253 16.095 4.07245 16.1844 4.11062 16.2664C4.14879 16.3484 4.20431 16.4211 4.27334 16.4796C5.11871 17.1947 6.09221 17.7427 7.14209 18.0944C7.22477 18.1224 7.31239 18.1328 7.39932 18.1248C7.48624 18.1169 7.57054 18.0908 7.64678 18.0483L9.9999 16.7304L12.353 18.0468C12.4462 18.0987 12.5511 18.1256 12.6577 18.1249C12.726 18.1249 12.7938 18.1138 12.8585 18.0921C13.9075 17.7382 14.8799 17.1887 15.7241 16.4726C15.7931 16.4142 15.8485 16.3416 15.8867 16.2597C15.9249 16.1778 15.9448 16.0887 15.9452 15.9983L15.9569 13.3694L18.2874 12.0413C18.3654 11.9969 18.4329 11.9363 18.4853 11.8635C18.5378 11.7907 18.5739 11.7074 18.5913 11.6194C18.8034 10.5485 18.8026 9.4463 18.589 8.37568ZM9.9999 13.1249C9.38184 13.1249 8.77765 12.9416 8.26375 12.5982C7.74984 12.2549 7.3493 11.7668 7.11278 11.1958C6.87626 10.6248 6.81437 9.99644 6.93495 9.39025C7.05553 8.78406 7.35316 8.22723 7.7902 7.79019C8.22723 7.35316 8.78406 7.05553 9.39025 6.93495C9.99644 6.81437 10.6248 6.87626 11.1958 7.11278C11.7668 7.3493 12.2549 7.74984 12.5982 8.26375C12.9416 8.77765 13.1249 9.38184 13.1249 9.9999C13.1249 10.8287 12.7957 11.6236 12.2096 12.2096C11.6236 12.7957 10.8287 13.1249 9.9999 13.1249Z" fill="#A39FB2"/>
</svg>
