<svg width="20" height="20" viewBox="0 0 20 20" fill="none" xmlns="http://www.w3.org/2000/svg">
<path d="M19.9999 10.6252C19.9999 10.791 19.934 10.9499 19.8168 11.0671C19.6996 11.1843 19.5406 11.2502 19.3749 11.2502H18.1249V12.5002C18.1249 12.666 18.059 12.8249 17.9418 12.9421C17.8246 13.0593 17.6656 13.1252 17.4999 13.1252C17.3341 13.1252 17.1751 13.0593 17.0579 12.9421C16.9407 12.8249 16.8749 12.666 16.8749 12.5002V11.2502H15.6249C15.4591 11.2502 15.3001 11.1843 15.1829 11.0671C15.0657 10.9499 14.9999 10.791 14.9999 10.6252C14.9999 10.4594 15.0657 10.3005 15.1829 10.1833C15.3001 10.066 15.4591 10.0002 15.6249 10.0002H16.8749V8.75019C16.8749 8.58443 16.9407 8.42546 17.0579 8.30825C17.1751 8.19104 17.3341 8.12519 17.4999 8.12519C17.6656 8.12519 17.8246 8.19104 17.9418 8.30825C18.059 8.42546 18.1249 8.58443 18.1249 8.75019V10.0002H19.3749C19.5406 10.0002 19.6996 10.066 19.8168 10.1833C19.934 10.3005 19.9999 10.4594 19.9999 10.6252ZM11.2499 12.3189C12.2296 11.7087 12.984 10.796 13.3988 9.71885C13.8137 8.64171 13.8664 7.45877 13.549 6.34899C13.2317 5.23921 12.5615 4.26298 11.64 3.56799C10.7184 2.873 9.59553 2.49707 8.44127 2.49707C7.28701 2.49707 6.16415 2.873 5.24257 3.56799C4.321 4.26298 3.65084 5.23921 3.3335 6.34899C3.01615 7.45877 3.06889 8.64171 3.48372 9.71885C3.89855 10.796 4.65291 11.7087 5.63268 12.3189C4.0194 12.8471 2.56783 13.8338 1.40065 15.2229C1.32423 15.3137 1.27526 15.4244 1.25947 15.542C1.24367 15.6597 1.2617 15.7794 1.31144 15.8871C1.36119 15.9949 1.4406 16.0863 1.54037 16.1506C1.64015 16.2149 1.75617 16.2494 1.87486 16.2502H14.9999C15.119 16.2503 15.2356 16.2164 15.3361 16.1525C15.4365 16.0885 15.5167 15.9972 15.567 15.8893C15.6173 15.7813 15.6357 15.6613 15.6201 15.5432C15.6045 15.4251 15.5554 15.314 15.4788 15.2229C14.3108 13.8338 12.8592 12.8471 11.2499 12.3189Z" fill="#A39FB2"/>
</svg>
