<svg width="30" height="30" viewBox="0 0 30 30" fill="none" xmlns="http://www.w3.org/2000/svg">
<path d="M18.6777 11.0762C18.655 11.0856 18.6346 11.0998 18.6172 11.1172L15.5303 14.2051L15 14.7354L14.4697 14.2051L11.3828 11.1172C11.3476 11.0819 11.2999 11.0615 11.25 11.0615C11.2001 11.0615 11.1524 11.0819 11.1172 11.1172C11.0819 11.1524 11.0615 11.2001 11.0615 11.25C11.0615 11.2999 11.0819 11.3476 11.1172 11.3828L14.2051 14.4697L14.7354 15L14.2051 15.5303L11.1172 18.6172C11.0998 18.6346 11.0856 18.655 11.0762 18.6777C11.0667 18.7005 11.0615 18.7253 11.0615 18.75C11.0615 18.7747 11.0667 18.7995 11.0762 18.8223C11.0856 18.845 11.0998 18.8654 11.1172 18.8828C11.1346 18.9002 11.155 18.9144 11.1777 18.9238C11.2005 18.9333 11.2253 18.9385 11.25 18.9385C11.2747 18.9385 11.2995 18.9333 11.3223 18.9238C11.345 18.9144 11.3654 18.9002 11.3828 18.8828L14.4697 15.7949L15 15.2646L15.5303 15.7949L18.6172 18.8828C18.6346 18.9002 18.655 18.9144 18.6777 18.9238C18.7005 18.9333 18.7253 18.9385 18.75 18.9385C18.7747 18.9385 18.7995 18.9333 18.8223 18.9238C18.845 18.9144 18.8654 18.9002 18.8828 18.8828C18.9002 18.8654 18.9144 18.845 18.9238 18.8223C18.9333 18.7994 18.9385 18.7747 18.9385 18.75C18.9385 18.7253 18.9333 18.7006 18.9238 18.6777C18.9144 18.655 18.9002 18.6346 18.8828 18.6172L15.7949 15.5303L15.2646 15L15.7949 14.4697L18.8828 11.3828C18.9002 11.3654 18.9144 11.345 18.9238 11.3223C18.9333 11.2994 18.9385 11.2747 18.9385 11.25C18.9385 11.2253 18.9333 11.2006 18.9238 11.1777C18.9144 11.155 18.9002 11.1346 18.8828 11.1172C18.8654 11.0998 18.845 11.0856 18.8223 11.0762C18.7995 11.0667 18.7747 11.0615 18.75 11.0615C18.7253 11.0615 18.7005 11.0667 18.6777 11.0762ZM27.9375 15C27.9375 17.5588 27.1784 20.0599 25.7568 22.1875C24.3352 24.3151 22.3152 25.9739 19.9512 26.9531C17.5872 27.9323 14.9852 28.1877 12.4756 27.6885C9.96615 27.1892 7.66078 25.9577 5.85156 24.1484C4.04234 22.3392 2.81078 20.0338 2.31152 17.5244C1.81233 15.0148 2.06767 12.4128 3.04688 10.0488C4.02608 7.68482 5.68495 5.66475 7.8125 4.24316C9.94006 2.82157 12.4412 2.0625 15 2.0625H15.001L15.3223 2.06641C18.6356 2.15209 21.7951 3.50602 24.1445 5.85547C26.5698 8.28074 27.9338 11.5692 27.9375 14.999V15Z" fill="#524F5B" stroke="white" stroke-width="1.5"/>
</svg>
