<svg width="18" height="15" viewBox="0 0 18 15" fill="currentColor" xmlns="http://www.w3.org/2000/svg">
<path d="M17.4808 5.22038C17.4808 5.22897 17.4808 5.23678 17.4753 5.24538L15.7035 13.3602C15.6489 13.646 15.4964 13.9037 15.2723 14.0891C15.0481 14.2745 14.7663 14.3759 14.4753 14.3758H3.02457C2.7338 14.3757 2.45216 14.2743 2.22814 14.0889C2.00413 13.9035 1.85174 13.6458 1.79722 13.3602L0.0253477 5.24538C0.0253477 5.23678 0.0214415 5.22897 0.019879 5.22038C-0.0286153 4.9517 0.0121846 4.67454 0.136045 4.43124C0.259905 4.18795 0.460013 3.99189 0.705794 3.87303C0.951575 3.75417 1.22951 3.71904 1.49714 3.77302C1.76476 3.82699 2.00735 3.9671 2.18785 4.17194L4.81832 7.00709L7.61519 0.734438C7.61532 0.731836 7.61532 0.729229 7.61519 0.726626C7.7152 0.509709 7.87527 0.325989 8.07645 0.197214C8.27762 0.0684384 8.51148 0 8.75035 0C8.98921 0 9.22307 0.0684384 9.42425 0.197214C9.62542 0.325989 9.78549 0.509709 9.8855 0.726626C9.88537 0.729229 9.88537 0.731836 9.8855 0.734438L12.6824 7.00709L15.3128 4.17194C15.4937 3.96862 15.736 3.82988 16.0029 3.77679C16.2698 3.72369 16.5467 3.75914 16.7916 3.87776C17.0365 3.99637 17.2361 4.19166 17.3599 4.43398C17.4837 4.6763 17.5251 4.95241 17.4777 5.22038H17.4808Z" />
</svg>
