<svg width="14" height="14" viewBox="0 0 14 14" fill="none" xmlns="http://www.w3.org/2000/svg">
<path d="M14 7.43773C14 7.55377 13.9539 7.66505 13.8718 7.74709C13.7898 7.82914 13.6785 7.87523 13.5625 7.87523H12.6875V8.75023C12.6875 8.86627 12.6414 8.97755 12.5593 9.05959C12.4773 9.14164 12.366 9.18773 12.25 9.18773C12.1339 9.18773 12.0227 9.14164 11.9406 9.05959C11.8586 8.97755 11.8125 8.86627 11.8125 8.75023V7.87523H10.9375C10.8214 7.87523 10.7102 7.82914 10.6281 7.74709C10.5461 7.66505 10.5 7.55377 10.5 7.43773C10.5 7.3217 10.5461 7.21042 10.6281 7.12837C10.7102 7.04633 10.8214 7.00023 10.9375 7.00023H11.8125V6.12523C11.8125 6.0092 11.8586 5.89792 11.9406 5.81588C12.0227 5.73383 12.1339 5.68773 12.25 5.68773C12.366 5.68773 12.4773 5.73383 12.5593 5.81588C12.6414 5.89792 12.6875 6.0092 12.6875 6.12523V7.00023H13.5625C13.6785 7.00023 13.7898 7.04633 13.8718 7.12837C13.9539 7.21042 14 7.3217 14 7.43773ZM7.87498 8.62336C8.56081 8.1962 9.08886 7.55729 9.37925 6.80329C9.66963 6.04929 9.70655 5.22123 9.4844 4.44439C9.26226 3.66754 8.79315 2.98418 8.14805 2.49769C7.50294 2.0112 6.71694 1.74805 5.90896 1.74805C5.10098 1.74805 4.31498 2.0112 3.66988 2.49769C3.02477 2.98418 2.55566 3.66754 2.33352 4.44439C2.11138 5.22123 2.14829 6.04929 2.43868 6.80329C2.72906 7.55729 3.25711 8.1962 3.94295 8.62336C2.81365 8.99305 1.79756 9.68375 0.980525 10.6561C0.927036 10.7197 0.892757 10.7972 0.8817 10.8795C0.870642 10.9619 0.883262 11.0457 0.918085 11.1211C0.952907 11.1965 1.00849 11.2605 1.07833 11.3055C1.14818 11.3505 1.22939 11.3747 1.31248 11.3752H10.5C10.5833 11.3753 10.665 11.3516 10.7353 11.3068C10.8057 11.2621 10.8617 11.1981 10.897 11.1226C10.9322 11.047 10.9451 10.963 10.9341 10.8803C10.9232 10.7977 10.8889 10.7199 10.8352 10.6561C10.0176 9.68375 9.00154 8.99305 7.87498 8.62336Z" fill="white"/>
</svg>
